<svg xmlns="http://www.w3.org/2000/svg" xmlns:xlink="http://www.w3.org/1999/xlink" id="Layer_1" x="0" y="0" enable-background="new 0 0 24 24" version="1.1" viewBox="0 0 24 24" xml:space="preserve"><g><rect width="3" height="5" x="10" y="17" opacity=".5"/><rect width="3" height="5" x="10" y="1" opacity=".9"/><rect width="3" height="5" x="2" y="9" opacity=".2" transform="matrix(-1.836970e-16 1 -1 -1.836970e-16 15 8)"/><rect width="3" height="5" x="18" y="9" opacity=".7" transform="matrix(-1.836970e-16 1 -1 -1.836970e-16 31 -8)"/><rect width="3" height="5" x="15.7" y="14.7" opacity=".6" transform="matrix(0.7071 -0.7071 0.7071 0.7071 -7.1066 17.1569)"/><rect width="3" height="5" x="4.3" y="3.3" opacity=".1" transform="matrix(0.7071 -0.7071 0.7071 0.7071 -2.4203 5.8431)"/><rect width="3" height="5" x="4.3" y="14.7" opacity=".3" transform="matrix(0.7071 0.7071 -0.7071 0.7071 13.8431 0.8934)"/><rect width="3" height="5" x="15.7" y="3.3" opacity=".8" transform="matrix(0.7071 0.7071 -0.7071 0.7071 9.1569 -10.4203)"/></g></svg>